<svg id="Visa" xmlns="http://www.w3.org/2000/svg" viewBox="0 0 26 16" width="26px" height="16px"><title>icon-unionpay-small</title><rect width="26" height="16" rx="2" ry="2" fill="#337a83"/><path d="M18,11.64h-.22l.76-2.59h.25l.08-.27v.29c0,.17.14.35.51.31h.43L20,8.87h-.15c-.1,0-.14,0-.14-.07V8.5h-.78a10.24,10.24,0,0,0-1.17.06,1.71,1.71,0,0,0-.39.2l.08-.28h-.74L16.55,9l-.76,2.63h-.15l-.16.49h1.46l-.05.16h.72l0-.16h.19Zm-.92,0h-.59l.18-.58h.58Zm.33-1.11a2.31,2.31,0,0,0-.31.06,3.44,3.44,0,0,0-.35.16l.19-.69h.59Zm0-.95-.33.13.19-.66h.59l-.14.49Zm1.09.46h.84l-.12.41h-.85l-.14.45H19l-.55.82a.21.21,0,0,1-.11.1.38.38,0,0,1-.16,0H18l-.14.48h.55a.62.62,0,0,0,.56-.31l.39-.54.08.56a.4.4,0,0,0,.14.2c.06,0,.11.07.19.07h.47l.16-.54h-.1a.4.4,0,0,1-.18,0s0-.06,0-.12L20,11.06h-.35l.16-.2h.86l.13-.45H20L20.1,10h.78L21,9.5H18.68Zm-7.13,1.72.19-.68h.82l.16-.51h-.82l.12-.41h.8l.15-.49h-2l-.15.49h.45l-.12.41h-.45l-.16.51h.45l-.25.89c0,.12,0,.16.06.22s.06.1.13.12a1.66,1.66,0,0,0,.22,0h.91l.16-.56-.41.06C11.58,11.84,11.37,11.84,11.39,11.76Zm.1-3.24-.22.39a.24.24,0,0,1-.29.18h-.1l-.13.49h.33a.72.72,0,0,0,.37-.1c.06,0,.07,0,.13-.06l.12-.12h1.11L13,8.8h-.82l.14-.28Zm1.63,3.26s0-.08,0-.18l.31-1h1.08a1.68,1.68,0,0,0,.35,0,.44.44,0,0,0,.25-.1.59.59,0,0,0,.2-.17,2.89,2.89,0,0,0,.19-.43l.39-1.31H14.78a4,4,0,0,0-.51.12,1.81,1.81,0,0,0-.37.25l.1-.35h-.7l-1,3.32a1.44,1.44,0,0,0-.05.27c0,.06.07.12.11.16a.56.56,0,0,0,.24,0l.37,0h.52l.16-.56-.45,0A.15.15,0,0,1,13.12,11.78Zm.76-2.71H15L15,9.34s-.55,0-.63,0a1.26,1.26,0,0,0-.6.27Zm-.23.78h1.13l-.08.23a.3.3,0,0,0-.15,0h-1Zm1.09,1a.1.1,0,0,1,0,.08s-.06,0-.11,0h-.16v-.29h-.66l0,1.38c0,.1,0,.16.08.2a1.29,1.29,0,0,0,.58.06h.43l.15-.53-.37,0h-.11s0,0-.06,0,0,0,0-.1v-.35l.39,0a.56.56,0,0,0,.37-.13.35.35,0,0,0,.12-.24l.06-.31h-.53ZM6.63,3.71a6.21,6.21,0,0,1-.89,0c0,.12-.45,2.16-.45,2.16a1.6,1.6,0,0,1-.39.9.66.66,0,0,1-.47.16A.42.42,0,0,1,4,6.48v-.1L4,5.81s.45-1.87.53-2.12v0a6.53,6.53,0,0,1-1.06,0s0,.14,0,.14L3,5.89l0,.18-.08.58a.91.91,0,0,0,.1.43c.21.37.82.43,1.15.43a2.27,2.27,0,0,0,1.13-.27A1.8,1.8,0,0,0,6,6.09l.06-.22s.46-1.95.54-2.2C6.61,3.73,6.61,3.71,6.63,3.71ZM8.21,5.27a1.15,1.15,0,0,0-.51.12l-.19.11.06-.21,0,0a7.35,7.35,0,0,1-.84.14h0a11.58,11.58,0,0,1-.23,1.33l-.18.78,0,0c.37,0,.49,0,.8,0l0,0c0-.21,0-.27.14-.7,0-.22.13-.66.17-.82a.57.57,0,0,1,.24-.08c.17,0,.15.16.15.24s-.08.46-.13.76l0,.19c0,.14-.06.29-.1.43l0,0c.37,0,.47,0,.78,0l0,0,.17-.92.06-.23c.1-.45.16-.66.08-.84A.49.49,0,0,0,8.21,5.27ZM10,5.74l-.45.07-.43.06,0,0,0,0L9,6.32a4.93,4.93,0,0,1-.12.57,1.2,1.2,0,0,1-.09.31,1.84,1.84,0,0,0-.1.31l0,0v0l.41,0h.43l0,0,0,0c0-.18,0-.21,0-.29s0-.22.12-.53a3.56,3.56,0,0,0,.1-.47L10,5.74Zm1.07,1.87a1.27,1.27,0,0,0,1-.41,2,2,0,0,0,.35-.76,1,1,0,0,0-.08-.86,1,1,0,0,0-.76-.29,1.36,1.36,0,0,0-.93.33,1.55,1.55,0,0,0-.41.84c-.06.31-.14.85.35,1A1.08,1.08,0,0,0,11.06,7.61Zm0-1.13c.08-.37.17-.69.43-.69s.21.24.11.61a1.77,1.77,0,0,1-.17.53.32.32,0,0,1-.24.15s-.17,0-.17-.23A.8.8,0,0,1,11,6.48Zm7,0c-.06.29-.14.83.33,1a.84.84,0,0,0,.43.08.6.6,0,0,0,.41-.2s0,.1,0,.14l0,0c.35,0,.44,0,.83,0l0,0c.06-.33.1-.66.26-1.31.07-.31.13-.6.21-.91l0,0a5.34,5.34,0,0,1-.88.13l0,0a.34.34,0,0,1,0,.1.55.55,0,0,0-.28-.23,1,1,0,0,0-.89.33A1.87,1.87,0,0,0,18,6.5Zm.81,0c.08-.37.18-.69.43-.69s.24.16.22.41c0,.06,0,.14,0,.22s-.06.21-.08.33a.49.49,0,0,1-.1.19.4.4,0,0,1-.31.16s-.17,0-.17-.23A1.67,1.67,0,0,1,18.85,6.52Zm-5.57,1,0,0c0-.21,0-.27.14-.7,0-.22.13-.66.17-.82a.58.58,0,0,1,.23-.08c.18,0,.16.16.16.24s-.08.46-.14.76l0,.19c0,.14-.06.29-.1.43l0,0c.37,0,.46,0,.78,0l0,0c0-.33.07-.43.17-.92l.06-.23c.1-.45.16-.66.08-.84a.46.46,0,0,0-.45-.25,1.15,1.15,0,0,0-.51.12l-.19.11.06-.23,0,0a7.35,7.35,0,0,1-.84.14l0,0a11.89,11.89,0,0,1-.23,1.32c-.06.25-.12.53-.18.78l0,0A5.36,5.36,0,0,0,13.28,7.55Zm2.71,0c0-.12.15-.8.15-.8s.12-.51.12-.53a.28.28,0,0,1,.08-.08h.06a2.41,2.41,0,0,0,1.54-.35,1.69,1.69,0,0,0,.6-1,1.87,1.87,0,0,0,0-.35A.89.89,0,0,0,18.46,4c-.23-.33-.68-.33-1.2-.33H16a.71.71,0,0,1,0,.14L15.7,5s-.59,2.45-.61,2.57A8,8,0,0,1,16,7.57Zm.45-2.07.25-1.15v-.1l.1,0,.54,0c.22.08.3.3.24.59a.89.89,0,0,1-.43.58,1.23,1.23,0,0,1-.61.1H16.4Zm6.68-.19,0,0a4.86,4.86,0,0,1-.81.13l0,0v0h0c-.28.63-.26.49-.47,1V6.38l-.06-1.07,0,0a4.87,4.87,0,0,1-.78.13l0,0v0h0c0,.26,0,.2.08.59,0,.19.06.39.08.56s.06.47.09,1c-.25.43-.31.58-.54,1h0l-.18.28s0,0-.05,0-.06,0-.12,0h-.1L20,9.38h.49a.62.62,0,0,0,.57-.31l.31-.55h0l0,0C21.58,8.06,23.12,5.31,23.12,5.31ZM10,5.11a.69.69,0,0,0-.71.08c-.21.14-.23.35-.06.47a.67.67,0,0,0,.69-.08C10.14,5.42,10.16,5.23,10,5.11Z" fill="#fdfdff"/></svg>