<?xml version="1.0" encoding="utf-8"?>
<!-- Generator: Adobe Illustrator 22.1.0, SVG Export Plug-In . SVG Version: 6.00 Build 0)  -->
<svg version="1.1" id="Visa" xmlns="http://www.w3.org/2000/svg" xmlns:xlink="http://www.w3.org/1999/xlink" x="0px" y="0px"
	 viewBox="0 0 36 22" width="36px" height="22px">
<style type="text/css">
	.st0{fill:#FFFFFF;}
	.st1{fill:#224DBA;}
	.st2{fill:#007ECD;}
	.st3{fill:#353A48;}
	.st4{fill:#313159;}
	.st5{fill:#E82C30;}
	.st6{fill:#ECA21D;}
	.st7{fill:#F36D1E;}
	.st8{fill:#D92E28;}
	.st9{fill:#4299DA;}
	.st10{fill:#6C6DB9;}
	.st11{fill:#F19E0C;}
	.st12{fill:#2183CB;}
	.st13{fill:#2464B4;}
	.st14{fill:#337A83;}
	.st15{fill:#D4463D;}
	.st16{fill:#FDFDFF;}
	.st17{fill:#009FE3;}
	.st18{fill:#F5F6FA;}
	.st19{fill:#C52B71;}
	.st20{fill:#000268;}
	.st21{fill:#19AEFF;}
	.st22{fill:#106DB3;}
	.st23{fill:#4285F4;}
	.st24{fill:#E23442;}
	.st25{fill:#072694;}
	.st26{fill:#753079;}
	.st27{fill:#BA302C;}
	.st28{fill:#3B66AD;}
	.st29{fill:#009FC9;}
	.st30{fill:#FF9500;}
	.st31{fill:#405787;}
	.st32{fill:#0056AD;}
	.st33{fill:#FF0007;}
	.st34{fill:#131413;}
	.st35{fill:#020202;}
	.st36{fill:#FFBC00;}
</style>
<path id="Rounded_Rectangle_52_3_" class="st14" d="M3,0h30c1.7,0,3,1.3,3,3v16c0,1.7-1.3,3-3,3H3c-1.7,0-3-1.3-3-3V3
	C0,1.3,1.3,0,3,0z"/>
<g>
	<g>
		<path class="st16" d="M24.9,16h-0.3l1-3.6H26l0.1-0.4v0.4c0,0.2,0.2,0.5,0.7,0.4h0.6l0.2-0.7h-0.2c-0.1,0-0.2,0-0.2-0.1v-0.4h-1.1
			l0,0c-0.3,0-1.4,0-1.6,0.1C24.3,11.9,24,12,24,12l0.1-0.4h-1l-0.2,0.7l-1,3.6h-0.2l-0.2,0.7h2l-0.1,0.2h1l0.1-0.2h0.3L24.9,16z
			 M23.7,16h-0.8l0.2-0.8h0.8L23.7,16z M24.1,14.5c0,0-0.2,0-0.4,0.1c-0.2,0.1-0.5,0.2-0.5,0.2l0.3-0.9h0.8L24.1,14.5z M24.1,13.2
			c-0.2,0.1-0.5,0.2-0.5,0.2l0.3-0.9h0.8l-0.2,0.7C24.5,13.1,24.3,13.1,24.1,13.2z M25.6,13.8h1.2l-0.2,0.6h-1.2L25.2,15h1l-0.8,1.1
			c-0.1,0.1-0.1,0.1-0.2,0.1c-0.1,0-0.1,0.1-0.2,0.1h-0.3L24.6,17h0.8c0.4,0,0.6-0.2,0.8-0.4l0.5-0.8l0.1,0.8c0,0.1,0.1,0.2,0.2,0.3
			c0.1,0,0.2,0.1,0.3,0.1s0.2,0,0.3,0h0.4l0.2-0.8H28c-0.1,0-0.2,0-0.2-0.1s0-0.1,0-0.2l-0.1-0.8h-0.5l0.2-0.3h1.2l0.2-0.6h-1.1
			l0.2-0.6h1.1l0.2-0.7h-3.2L25.6,13.8z M15.8,16.2l0.3-0.9h1.1l0.2-0.7h-1.1l0.2-0.6h1.1l0.2-0.7H15L14.8,14h0.6l-0.2,0.6h-0.6
			l-0.2,0.7H15l-0.3,1.2c-0.1,0.2,0,0.2,0.1,0.3c0.1,0.1,0.1,0.1,0.2,0.2c0.1,0,0.2,0.1,0.3,0.1h1.3l0.2-0.8l-0.6,0.1
			C16.1,16.3,15.8,16.3,15.8,16.2z M15.9,11.7l-0.3,0.5c-0.1,0.1-0.1,0.2-0.2,0.2c-0.1,0-0.1,0-0.2,0h-0.1l-0.2,0.7h0.5
			c0.2,0,0.4-0.1,0.5-0.1c0.1-0.1,0.1,0,0.2-0.1l0.2-0.2h1.5l0.2-0.7h-1.1l0.2-0.4H15.9z M18.2,16.2c0,0,0-0.1,0-0.2l0.4-1.4h1.5
			c0.2,0,0.4,0,0.5,0c0.1,0,0.2-0.1,0.3-0.1c0.1-0.1,0.2-0.2,0.3-0.2c0.1-0.1,0.2-0.3,0.3-0.6l0.5-1.8h-1.6c0,0-0.5,0.1-0.7,0.2
			s-0.5,0.3-0.5,0.3l0.1-0.5h-1l-1.3,4.6C17,16.5,17,16.6,17,16.7s0.1,0.2,0.2,0.2c0.1,0.1,0.2,0.1,0.3,0.1c0.1,0,0.3,0,0.5,0h0.7
			l0.2-0.8l-0.6,0C18.3,16.2,18.2,16.2,18.2,16.2z M19.2,12.5h1.6l-0.1,0.4c0,0-0.8,0-0.9,0C19.3,13,19,13.2,19,13.2L19.2,12.5z
			 M18.9,13.5h1.6l-0.1,0.3c0,0-0.1,0-0.2,0h-1.3L18.9,13.5z M20.4,14.9c0,0.1,0,0.1-0.1,0.1c0,0-0.1,0-0.2,0H20v-0.4h-0.9l0,1.9
			c0,0.1,0,0.2,0.1,0.3c0.1,0.1,0.4,0.1,0.8,0.1h0.6l0.2-0.7l-0.5,0h-0.2c0,0-0.1,0-0.1-0.1c0,0-0.1,0-0.1-0.1v-0.5l0.5,0
			c0.3,0,0.4-0.1,0.5-0.2s0.1-0.2,0.2-0.3l0.1-0.4h-0.7L20.4,14.9z M9.2,5.1c-0.9,0-1.1,0-1.2,0c0,0.2-0.6,3-0.6,3
			C7.3,8.6,7.2,9,6.9,9.3C6.7,9.4,6.5,9.5,6.2,9.5c-0.4,0-0.6-0.2-0.6-0.6V8.8L5.7,8c0,0,0.6-2.6,0.7-2.9c0,0,0,0,0,0C5.2,5,5,5,5,5
			c0,0,0,0.2,0,0.2L4.3,8.1L4.2,8.3L4.1,9.1c0,0.2,0.1,0.4,0.1,0.6c0.3,0.5,1.1,0.6,1.6,0.6c0.6,0,1.2-0.1,1.6-0.4
			c0.7-0.4,0.8-1,1-1.6l0.1-0.3C8.5,8.1,9.1,5.4,9.2,5.1C9.2,5.1,9.2,5.1,9.2,5.1z M11.4,7.2c-0.2,0-0.4,0-0.7,0.2
			c-0.1,0.1-0.2,0.1-0.3,0.2l0.1-0.3l-0.1-0.1C9.9,7.3,9.8,7.4,9.3,7.4l-0.1,0C9.2,7.9,9.2,8.3,8.9,9.3C8.9,9.6,8.8,10,8.7,10.3
			l0,0.1c0.5,0,0.7,0,1.1,0l0-0.1c0.1-0.3,0.1-0.4,0.2-1c0.1-0.3,0.2-0.9,0.2-1.1c0.1-0.1,0.2-0.1,0.3-0.1c0.2,0,0.2,0.2,0.2,0.3
			c0,0.2-0.1,0.6-0.2,1l-0.1,0.3c-0.1,0.2-0.1,0.4-0.1,0.6l0,0c0.5,0,0.6,0,1.1,0l0.1-0.1c0.1-0.5,0.1-0.6,0.2-1.3l0.1-0.3
			c0.1-0.6,0.2-0.9,0.1-1.2C11.9,7.3,11.7,7.2,11.4,7.2z M13.9,7.9C13.6,7.9,13.4,8,13.2,8c-0.2,0-0.3,0.1-0.6,0.1l0,0l0,0
			c0,0.2-0.1,0.4-0.1,0.6c0,0.2-0.1,0.5-0.2,0.8c-0.1,0.3-0.1,0.3-0.1,0.4c0,0.1-0.1,0.2-0.1,0.4l0,0v0c0.2,0,0.4,0,0.6,0
			s0.3,0,0.6,0l0,0l0,0c0-0.2,0.1-0.3,0.1-0.4c0-0.1,0.1-0.3,0.2-0.7c0.1-0.2,0.1-0.4,0.1-0.6C13.7,8.3,13.8,8.1,13.9,7.9L13.9,7.9
			L13.9,7.9z M15.3,10.5c0.5,0,1-0.1,1.4-0.6c0.3-0.3,0.4-0.8,0.5-1c0.2-0.7,0-1-0.1-1.2c-0.2-0.3-0.6-0.4-1-0.4
			c-0.2,0-0.8,0-1.3,0.5c-0.3,0.3-0.5,0.8-0.6,1.2c-0.1,0.4-0.2,1.2,0.5,1.4C14.8,10.4,15.1,10.5,15.3,10.5z M15.3,8.9
			C15.4,8.4,15.5,8,15.9,8c0.3,0,0.3,0.3,0.2,0.8c0,0.1-0.1,0.5-0.2,0.7c-0.1,0.1-0.2,0.2-0.3,0.2c0,0-0.2,0-0.2-0.3
			C15.2,9.3,15.2,9.1,15.3,8.9z M24.9,8.9c-0.1,0.4-0.2,1.2,0.5,1.4c0.2,0.1,0.4,0.1,0.6,0.1c0.2,0,0.4-0.1,0.6-0.3
			c0,0.1,0,0.1-0.1,0.2l0,0c0.5,0,0.6,0,1.2,0l0.1,0c0.1-0.5,0.1-0.9,0.3-1.8c0.1-0.4,0.2-0.8,0.3-1.3l0-0.1
			c-0.5,0.1-0.7,0.1-1.2,0.2l0,0c0,0.1,0,0.1,0,0.1c-0.1-0.1-0.2-0.2-0.4-0.3c-0.2-0.1-0.8,0-1.2,0.5C25.2,8.1,25,8.5,24.9,8.9z
			 M26,9C26.2,8.4,26.3,8,26.6,8c0.2,0,0.3,0.2,0.3,0.6c0,0.1,0,0.2-0.1,0.3c0,0.2-0.1,0.3-0.1,0.5c0,0.1-0.1,0.2-0.1,0.3
			c-0.1,0.1-0.3,0.2-0.4,0.2c0,0-0.2,0-0.2-0.3C26,9.3,26,9.1,26,9z M18.4,10.4L18.4,10.4c0.1-0.3,0.1-0.4,0.2-1
			c0.1-0.3,0.2-0.9,0.2-1.1c0.1-0.1,0.2-0.1,0.3-0.1c0.2,0,0.2,0.2,0.2,0.3c0,0.2-0.1,0.6-0.2,1l-0.1,0.3c-0.1,0.2-0.1,0.4-0.1,0.6
			l0,0c0.5,0,0.6,0,1.1,0l0.1-0.1c0.1-0.5,0.1-0.6,0.2-1.3l0.1-0.3c0.1-0.6,0.2-0.9,0.1-1.2c-0.1-0.3-0.4-0.3-0.6-0.3
			c-0.2,0-0.4,0-0.7,0.2c-0.1,0.1-0.2,0.1-0.3,0.2l0.1-0.3L19,7.2c-0.5,0.1-0.7,0.1-1.2,0.2l0,0c-0.1,0.5-0.1,0.9-0.3,1.8
			c-0.1,0.3-0.2,0.7-0.2,1.1l0,0.1C17.8,10.4,18,10.4,18.4,10.4z M22.1,10.4c0-0.2,0.2-1.1,0.2-1.1s0.2-0.7,0.2-0.7
			c0,0,0.1-0.1,0.1-0.1h0.1c0.7,0,1.5,0,2.1-0.5c0.4-0.3,0.7-0.8,0.8-1.4c0-0.1,0.1-0.3,0.1-0.5c0-0.2-0.1-0.4-0.2-0.6
			c-0.3-0.5-0.9-0.5-1.7-0.5h-0.3c-0.9,0-1.3,0-1.4,0c0,0.1,0,0.2,0,0.2l-0.3,1.6c0,0-0.8,3.4-0.8,3.5
			C21.6,10.4,21.9,10.4,22.1,10.4z M22.7,7.6L23.1,6V5.9V5.9l0.1,0c0,0,0.7,0.1,0.8,0.1c0.3,0.1,0.4,0.4,0.3,0.8
			c-0.1,0.3-0.3,0.6-0.6,0.8c-0.2,0.1-0.5,0.1-0.8,0.1h-0.2L22.7,7.6z M31.9,7.3L31.9,7.3c-0.6,0.1-0.7,0.1-1.2,0.1l0,0v0l0,0
			c-0.4,0.9-0.3,0.7-0.6,1.4c0,0,0-0.1,0-0.1L30,7.3l-0.1-0.1c-0.6,0.1-0.6,0.1-1.1,0.2l0,0c0,0,0,0,0,0.1l0,0
			c0.1,0.3,0.1,0.3,0.1,0.8c0,0.3,0.1,0.5,0.1,0.8c0.1,0.4,0.1,0.6,0.1,1.3c-0.3,0.6-0.4,0.8-0.8,1.3l0,0l-0.2,0.4
			c0,0.1-0.1,0.1-0.1,0.1c0,0-0.1,0-0.2,0h-0.1l-0.2,0.7h0.7c0.4,0,0.6-0.2,0.8-0.4l0.4-0.8l0,0l0.1-0.1
			C29.8,11.1,31.9,7.3,31.9,7.3z M13.9,7c-0.2-0.2-0.7-0.1-1,0.1c-0.3,0.2-0.3,0.5-0.1,0.6c0.2,0.1,0.7,0.1,0.9-0.1
			C14.1,7.5,14.1,7.2,13.9,7z"/>
	</g>
</g>
</svg>
