<svg width="13" height="16" viewBox="0 0 13 16" class="icon-csv-file"><path fill='#bac0ce' fill-rule='evenodd' d="M372.81,280.347l-4.225-4.159a0.655,0.655,0,0,0-.46-0.188H361.3a1.29,1.29,0,0,0-1.3,1.28v13.44a1.29,1.29,0,0,0,1.3,1.28h10.4a1.29,1.29,0,0,0,1.3-1.28V280.8A0.637,0.637,0,0,0,372.81,280.347Zm-8.972,6.977a1.717,1.717,0,0,0,.416-0.058l0.086,0.639a1.93,1.93,0,0,1-.666.093,1.673,1.673,0,0,1-1.682-1.935,1.808,1.808,0,0,1,1.794-2.051,1.312,1.312,0,0,1,.6.105l-0.145.639a0.965,0.965,0,0,0-.4-0.075c-0.487,0-.929.372-0.929,1.342C362.909,286.958,363.311,287.324,363.838,287.324ZM366,288a2.218,2.218,0,0,1-.85-0.156l0.126-.657a1.9,1.9,0,0,0,.731.151,0.5,0.5,0,0,0,.607-0.442,0.8,0.8,0,0,0-.573-0.639,1.321,1.321,0,0,1-.838-1.093,1.21,1.21,0,0,1,1.4-1.151,1.634,1.634,0,0,1,.7.14l-0.139.656a1.169,1.169,0,0,0-.56-0.133,0.463,0.463,0,0,0-.548.407,0.771,0.771,0,0,0,.607.61,1.257,1.257,0,0,1,.8,1.121A1.278,1.278,0,0,1,366,288Zm3.991-.034h-0.97l-0.989-3.917h0.956l0.317,1.691c0.072,0.424.164,0.9,0.223,1.36h0.014c0.059-.465.132-0.936,0.211-1.377l0.3-1.674h0.95Zm-1.543-6.844a0.645,0.645,0,0,1-.65-0.64v-3.261l3.962,3.9H368.45Z" transform="translate(-360 -276)"/></svg>
