<svg class="icon-new-report" width="13" height="14" viewBox="0 0 13 14"><path fill='#4780ec' fill-rule='evenodd' d="M1752.5,107a1.51,1.51,0,0,0-1.5,1.5v9a1.51,1.51,0,0,0,1.5,1.5h3.26a4.495,4.495,0,1,0,5.24-6.725v-1.982L1757.71,107h-5.21Zm0,1h4.5v3h3v1.051a4.458,4.458,0,0,0-.5-0.051,4.507,4.507,0,0,0-4.5,4.5,4.4,4.4,0,0,0,.28,1.5h-2.78a0.5,0.5,0,0,1-.5-0.5v-9A0.494,0.494,0,0,1,1752.5,108Zm5.5,0.707,1.29,1.293H1758v-1.293Zm1.5,4.293a3.5,3.5,0,1,1-3.5,3.5A3.492,3.492,0,0,1,1759.5,113Zm-0.5,1v2h-2v1h2v2h1v-2h2v-1h-2v-2h-1Z" transform="translate(-1751 -107)"/></svg>
